<svg version="1.1" id="Layer_2" xmlns="http://www.w3.org/2000/svg" xmlns:xlink="http://www.w3.org/1999/xlink" x="0px" y="0px"
	 viewBox="0 0 720 720" enable-background="new 0 0 720 720" xml:space="preserve">
<path stroke="#000000" stroke-miterlimit="10" d="M221.5,413.7c-3.2-9.6,2.5-18.2,2.5-27.3c0,0-6.1-5.1-9.1-9.1
	c-4.1,0-9.1-1-15.7-6.1c0,0-15.7,1-28.4-10.6c-19.2-10.6-3.5-17.7,2.5-20.3c6.1-6.6,18.2-8.6,27.3-9.6c9.1-7.1,17.2-5.1,17.2-5.1
	s0,0,5.6-7.6c-1-12.2,0,4.1-3.5-30.4c6.6-37,67.9-60.8,89.1-59.8s10.6,10.1,10.6,10.1l-59.3,50.1c0,0,91.7-13.7,160,31.4
	c8.1-6.6,20.3-16.2,24.8-14.7c4.6-4.6,24.3-20.8,33.4-13.7c0,0,10.1,3,3.5,14.2c0.5,9.6-8.1,16.7-8.1,16.7
	c-0.5,4.1-4.6,21.8-28.9,18.7c9,7,13.2,9.2,13.2,9.2s14.2,3.9,26.8-1.1c-8.6,9.6-7.6,13.7-36,14.2c-2.5,5.1-5.6,8.6-5.6,8.6
	c11.6,0,28.4-3.5,27.3,15.2c13.7,5.6,12.2,11.1,9.6,14.7c0,0,4.1,6.6,3,13.2c3,10.1-4.6,10.6-25.3,2c-13.7-15.7-36-22.8-36-22.8
	s-75,40.5-155.5,28.9c0,0,14.7,7.6,18.7,13.2c9.6,0,16.2,11.1,16.2,11.1c15.7,7.1,21.8,16.2,21.8,16.2s19.2,9.6-0.5,11.1
	C304.1,473.5,241.8,475,221.5,413.7z"/>
</svg>
